<svg width="179" height="11" viewBox="0 0 179 11" fill="none" xmlns="http://www.w3.org/2000/svg">
<path d="M2.0348 2.72727V10H0.71733V2.72727H2.0348ZM8.43803 2.72727V10H7.26616L3.83931 5.04616H3.77894V10H2.46147V2.72727H3.64045L7.06374 7.68466H7.12766V2.72727H8.43803ZM8.87358 10V2.72727H13.5327V3.83168H10.1911V5.80611H13.2131V6.91051H10.1911V10H8.87358ZM20.2315 6.36364C20.2315 7.14725 20.0848 7.81842 19.7912 8.37713C19.5 8.93348 19.1023 9.35961 18.598 9.65554C18.0961 9.95147 17.5268 10.0994 16.8899 10.0994C16.2531 10.0994 15.6825 9.95147 15.1783 9.65554C14.6764 9.35724 14.2786 8.92992 13.9851 8.37358C13.6939 7.81487 13.5483 7.14489 13.5483 6.36364C13.5483 5.58002 13.6939 4.91004 13.9851 4.35369C14.2786 3.79498 14.6764 3.36766 15.1783 3.07173C15.6825 2.7758 16.2531 2.62784 16.8899 2.62784C17.5268 2.62784 18.0961 2.7758 18.598 3.07173C19.1023 3.36766 19.5 3.79498 19.7912 4.35369C20.0848 4.91004 20.2315 5.58002 20.2315 6.36364ZM18.907 6.36364C18.907 5.81203 18.8205 5.34683 18.6477 4.96804C18.4773 4.58688 18.2405 4.29924 17.9375 4.10511C17.6345 3.90862 17.2853 3.81037 16.8899 3.81037C16.4946 3.81037 16.1454 3.90862 15.8423 4.10511C15.5393 4.29924 15.3014 4.58688 15.1286 4.96804C14.9581 5.34683 14.8729 5.81203 14.8729 6.36364C14.8729 6.91525 14.9581 7.38163 15.1286 7.76278C15.3014 8.14157 15.5393 8.42921 15.8423 8.62571C16.1454 8.81984 16.4946 8.9169 16.8899 8.9169C17.2853 8.9169 17.6345 8.81984 17.9375 8.62571C18.2405 8.42921 18.4773 8.14157 18.6477 7.76278C18.8205 7.38163 18.907 6.91525 18.907 6.36364ZM20.4771 10V2.72727H23.2044C23.7631 2.72727 24.2318 2.82434 24.6106 3.01847C24.9918 3.21259 25.2794 3.48485 25.4735 3.83523C25.67 4.18324 25.7683 4.58925 25.7683 5.05327C25.7683 5.51965 25.6689 5.92448 25.47 6.26776C25.2735 6.60866 24.9835 6.87263 24.6 7.05966C24.2164 7.24432 23.7453 7.33665 23.1866 7.33665H21.2441V6.2429H23.0091C23.3358 6.2429 23.6033 6.19792 23.8116 6.10795C24.0199 6.01562 24.1738 5.88187 24.2733 5.70668C24.3751 5.52912 24.426 5.31132 24.426 5.05327C24.426 4.79522 24.3751 4.57505 24.2733 4.39276C24.1715 4.2081 24.0164 4.06842 23.8081 3.97372C23.5997 3.87666 23.331 3.82812 23.002 3.82812H21.7946V10H20.4771ZM24.2342 6.70455L26.0346 10H24.5645L22.796 6.70455H24.2342ZM25.981 2.72727H27.5932L29.7523 7.99716H29.8375L31.9966 2.72727H33.6088V10H32.3446V5.00355H32.2772L30.2672 9.97869H29.3226L27.3127 4.9929H27.2452V10H25.981V2.72727ZM34.9775 10H33.5712L36.1316 2.72727H37.758L40.3219 10H38.9157L36.9732 4.21875H36.9164L34.9775 10ZM35.0236 7.14844H38.8588V8.20668H35.0236V7.14844ZM39.0813 3.83168V2.72727H44.8839V3.83168H42.636V10H41.3292V3.83168H39.0813ZM46.32 2.72727V10H45.0025V2.72727H46.32ZM53.2452 6.36364C53.2452 7.14725 53.0984 7.81842 52.8049 8.37713C52.5137 8.93348 52.1159 9.35961 51.6117 9.65554C51.1098 9.95147 50.5404 10.0994 49.9036 10.0994C49.2667 10.0994 48.6962 9.95147 48.1919 9.65554C47.69 9.35724 47.2923 8.92992 46.9988 8.37358C46.7076 7.81487 46.562 7.14489 46.562 6.36364C46.562 5.58002 46.7076 4.91004 46.9988 4.35369C47.2923 3.79498 47.69 3.36766 48.1919 3.07173C48.6962 2.7758 49.2667 2.62784 49.9036 2.62784C50.5404 2.62784 51.1098 2.7758 51.6117 3.07173C52.1159 3.36766 52.5137 3.79498 52.8049 4.35369C53.0984 4.91004 53.2452 5.58002 53.2452 6.36364ZM51.9206 6.36364C51.9206 5.81203 51.8342 5.34683 51.6614 4.96804C51.4909 4.58688 51.2542 4.29924 50.9512 4.10511C50.6481 3.90862 50.2989 3.81037 49.9036 3.81037C49.5082 3.81037 49.159 3.90862 48.856 4.10511C48.553 4.29924 48.315 4.58688 48.1422 4.96804C47.9718 5.34683 47.8865 5.81203 47.8865 6.36364C47.8865 6.91525 47.9718 7.38163 48.1422 7.76278C48.315 8.14157 48.553 8.42921 48.856 8.62571C49.159 8.81984 49.5082 8.9169 49.9036 8.9169C50.2989 8.9169 50.6481 8.81984 50.9512 8.62571C51.2542 8.42921 51.4909 8.14157 51.6614 7.76278C51.8342 7.38163 51.9206 6.91525 51.9206 6.36364ZM59.4673 2.72727V10H58.2955L54.8686 5.04616H54.8082V10H53.4908V2.72727H54.6697L58.093 7.68466H58.157V2.72727H59.4673Z" fill="#1D7BC3"/>
<path d="M64.6326 5.83452V6.89276H61.3585V5.83452H64.6326ZM67.8395 2.72727V10H66.522V2.72727H67.8395ZM74.2427 2.72727V10H73.0708L69.644 5.04616H69.5836V10H68.2662V2.72727H69.4451L72.8684 7.68466H72.9324V2.72727H74.2427ZM74.3587 3.83168V2.72727H80.1612V3.83168H77.9134V10H76.6065V3.83168H74.3587ZM80.2798 10V2.72727H85.0099V3.83168H81.5973V5.80611H84.7649V6.91051H81.5973V8.8956H85.0384V10H80.2798ZM85.354 10V2.72727H86.6715V8.8956H89.8746V10H85.354ZM90.0181 10V2.72727H91.3356V8.8956H94.5387V10H90.0181ZM95.9996 2.72727V10H94.6822V2.72727H95.9996ZM101.298 5.04972C101.239 4.85795 101.158 4.68632 101.053 4.5348C100.952 4.38092 100.829 4.24953 100.684 4.14062C100.542 4.03172 100.379 3.95005 100.194 3.8956C100.009 3.83878 99.8082 3.81037 99.5904 3.81037C99.1998 3.81037 98.8517 3.90862 98.5463 4.10511C98.2409 4.30161 98.0007 4.59044 97.8255 4.97159C97.6526 5.35038 97.5662 5.81203 97.5662 6.35653C97.5662 6.90578 97.6526 7.37098 97.8255 7.75213C97.9983 8.13329 98.2386 8.4233 98.5463 8.62216C98.8541 8.81866 99.2116 8.9169 99.6188 8.9169C99.9881 8.9169 100.308 8.84588 100.578 8.70384C100.85 8.56179 101.059 8.36056 101.206 8.10014C101.353 7.83736 101.426 7.52959 101.426 7.17685L101.725 7.22301H99.7502V6.19318H102.701V7.06676C102.701 7.68939 102.569 8.22798 102.303 8.68253C102.038 9.13707 101.674 9.48745 101.21 9.73366C100.746 9.97751 100.213 10.0994 99.6117 10.0994C98.9417 10.0994 98.3534 9.9491 97.8468 9.64844C97.3425 9.34541 96.9483 8.91572 96.6642 8.35938C96.3825 7.80066 96.2417 7.13778 96.2417 6.37074C96.2417 5.78362 96.3245 5.25923 96.4902 4.79759C96.6583 4.33594 96.8927 3.94413 97.1934 3.62216C97.494 3.29782 97.8468 3.05161 98.2516 2.88352C98.6564 2.71307 99.0968 2.62784 99.5726 2.62784C99.9751 2.62784 100.35 2.68703 100.698 2.8054C101.046 2.9214 101.355 3.08712 101.625 3.30256C101.897 3.51799 102.121 3.77367 102.296 4.0696C102.472 4.36553 102.586 4.69223 102.641 5.04972H101.298ZM102.975 10V2.72727H107.705V3.83168H104.293V5.80611H107.46V6.91051H104.293V8.8956H107.734V10H102.975ZM114.026 2.72727V10H112.854L109.427 5.04616H109.367V10H108.049V2.72727H109.228L112.652 7.68466H112.716V2.72727H114.026ZM114.142 3.83168V2.72727H119.944V3.83168H117.697V10H116.39V3.83168H114.142Z" fill="#FEB13D"/>
<path d="M124.793 5.83452V6.89276H121.519V5.83452H124.793ZM128 2.72727V10H126.682V2.72727H128ZM134.403 2.72727V10H133.231L129.804 5.04616H129.744V10H128.426V2.72727H129.605L133.029 7.68466H133.093V2.72727H134.403ZM140.815 2.72727V10H139.643L136.216 5.04616H136.156V10H134.838V2.72727H136.017L139.441 7.68466H139.505V2.72727H140.815ZM147.749 6.36364C147.749 7.14725 147.602 7.81842 147.309 8.37713C147.018 8.93348 146.62 9.35961 146.116 9.65554C145.614 9.95147 145.044 10.0994 144.407 10.0994C143.771 10.0994 143.2 9.95147 142.696 9.65554C142.194 9.35724 141.796 8.92992 141.503 8.37358C141.211 7.81487 141.066 7.14489 141.066 6.36364C141.066 5.58002 141.211 4.91004 141.503 4.35369C141.796 3.79498 142.194 3.36766 142.696 3.07173C143.2 2.7758 143.771 2.62784 144.407 2.62784C145.044 2.62784 145.614 2.7758 146.116 3.07173C146.62 3.36766 147.018 3.79498 147.309 4.35369C147.602 4.91004 147.749 5.58002 147.749 6.36364ZM146.425 6.36364C146.425 5.81203 146.338 5.34683 146.165 4.96804C145.995 4.58688 145.758 4.29924 145.455 4.10511C145.152 3.90862 144.803 3.81037 144.407 3.81037C144.012 3.81037 143.663 3.90862 143.36 4.10511C143.057 4.29924 142.819 4.58688 142.646 4.96804C142.476 5.34683 142.39 5.81203 142.39 6.36364C142.39 6.91525 142.476 7.38163 142.646 7.76278C142.819 8.14157 143.057 8.42921 143.36 8.62571C143.663 8.81984 144.012 8.9169 144.407 8.9169C144.803 8.9169 145.152 8.81984 145.455 8.62571C145.758 8.42921 145.995 8.14157 146.165 7.76278C146.338 7.38163 146.425 6.91525 146.425 6.36364ZM148.577 2.72727L150.47 8.4517H150.544L152.434 2.72727H153.882L151.319 10H149.692L147.132 2.72727H148.577ZM153.925 10H152.518L155.079 2.72727H156.705L159.269 10H157.863L155.92 4.21875H155.864L153.925 10ZM153.971 7.14844H157.806V8.20668H153.971V7.14844ZM158.029 3.83168V2.72727H163.831V3.83168H161.583V10H160.276V3.83168H158.029ZM165.267 2.72727V10H163.95V2.72727H165.267ZM172.192 6.36364C172.192 7.14725 172.046 7.81842 171.752 8.37713C171.461 8.93348 171.063 9.35961 170.559 9.65554C170.057 9.95147 169.488 10.0994 168.851 10.0994C168.214 10.0994 167.643 9.95147 167.139 9.65554C166.637 9.35724 166.24 8.92992 165.946 8.37358C165.655 7.81487 165.509 7.14489 165.509 6.36364C165.509 5.58002 165.655 4.91004 165.946 4.35369C166.24 3.79498 166.637 3.36766 167.139 3.07173C167.643 2.7758 168.214 2.62784 168.851 2.62784C169.488 2.62784 170.057 2.7758 170.559 3.07173C171.063 3.36766 171.461 3.79498 171.752 4.35369C172.046 4.91004 172.192 5.58002 172.192 6.36364ZM170.868 6.36364C170.868 5.81203 170.781 5.34683 170.609 4.96804C170.438 4.58688 170.201 4.29924 169.898 4.10511C169.595 3.90862 169.246 3.81037 168.851 3.81037C168.455 3.81037 168.106 3.90862 167.803 4.10511C167.5 4.29924 167.262 4.58688 167.089 4.96804C166.919 5.34683 166.834 5.81203 166.834 6.36364C166.834 6.91525 166.919 7.38163 167.089 7.76278C167.262 8.14157 167.5 8.42921 167.803 8.62571C168.106 8.81984 168.455 8.9169 168.851 8.9169C169.246 8.9169 169.595 8.81984 169.898 8.62571C170.201 8.42921 170.438 8.14157 170.609 7.76278C170.781 7.38163 170.868 6.91525 170.868 6.36364ZM178.415 2.72727V10H177.243L173.816 5.04616H173.756V10H172.438V2.72727H173.617L177.04 7.68466H177.104V2.72727H178.415Z" fill="#4AAD02"/>
</svg>
